<svg width="570" height="205" viewBox="0 0 570 205" fill="none" xmlns="http://www.w3.org/2000/svg">
<path d="M325.134 152V46.25H339.534L396.384 120.05V46.25H414.234V152H399.984L342.984 77.9V152H325.134Z" fill="white"/>
<path d="M491.134 152V46.25H561.484V61.55H509.584V90.65H558.184V105.95H509.584V136.7H561.484V152H491.134Z" fill="white"/>
<path d="M11.55 152V46.25H30.75V90.35H85.2V46.25H104.4V152H85.2V106.4H30.75V152H11.55Z" fill="white"/>
<path d="M94 19L113.919 53.5H74.0814L94 19Z" fill="white"/>
<path fill-rule="evenodd" clip-rule="evenodd" d="M178.684 146.75C186.384 151.25 195.334 153.5 205.534 153.5C215.834 153.5 224.784 151.25 232.384 146.75C232.749 146.534 233.11 146.313 233.468 146.089L220.729 133.35C216.445 135.783 211.38 137 205.534 137C195.834 137 188.284 133.65 182.884 126.95C177.484 120.25 174.784 110.95 174.784 99.05C174.784 95.1684 175.066 91.5693 175.631 88.2527L159.886 72.507C156.418 80.1161 154.684 88.9638 154.684 99.05C154.684 110.05 156.784 119.65 160.984 127.85C165.184 135.95 171.084 142.25 178.684 146.75ZM170.333 57.7121C172.841 55.3417 175.625 53.271 178.684 51.5C186.284 47 195.234 44.75 205.534 44.75C215.834 44.75 224.784 47 232.384 51.5C239.984 55.9 245.884 62.15 250.084 70.25C254.284 78.35 256.384 87.9 256.384 98.9C256.384 110 254.284 119.65 250.084 127.85C248.988 129.965 247.775 131.957 246.447 133.826L232.478 119.857C235.015 114.143 236.284 107.207 236.284 99.05C236.284 87.05 233.584 77.75 228.184 71.15C222.884 64.55 215.334 61.25 205.534 61.25C196.074 61.25 188.658 64.389 183.288 70.6669L170.333 57.7121Z" fill="white"/>
</svg>
